<svg width="46" height="38" viewBox="0 0 46 38" fill="none" xmlns="http://www.w3.org/2000/svg">
<path d="M8.72563 35.9932C8.72563 36.3044 8.62092 36.564 8.41151 36.772C8.20209 36.9799 7.94323 37.0839 7.63493 37.0839H1.76259C1.26377 37.0839 0.84494 36.9152 0.506095 36.5778C0.16725 36.2404 -0.00144495 35.8216 9.32225e-06 35.3213V29.449C9.32225e-06 29.1392 0.104717 28.8804 0.314132 28.6724C0.523547 28.4644 0.783134 28.3597 1.09289 28.3583C1.40265 28.3568 1.66151 28.4615 1.86947 28.6724C2.07743 28.8833 2.18141 29.1421 2.18141 29.449V34.9025H7.63493C7.94469 34.9025 8.20355 35.0072 8.41151 35.2166C8.61947 35.426 8.72418 35.6834 8.72563 35.9932ZM44.7188 28.3583C45.03 28.3583 45.2896 28.463 45.4976 28.6724C45.7055 28.8818 45.8095 29.1407 45.8095 29.449V35.3213C45.8095 35.8216 45.6408 36.2404 45.3034 36.5778C44.966 36.9152 44.5472 37.0839 44.0469 37.0839H38.1746C37.8648 37.0839 37.606 36.9792 37.398 36.7698C37.1901 36.5604 37.0854 36.3008 37.0839 35.991C37.0824 35.6813 37.1872 35.4224 37.398 35.2144C37.6089 35.0065 37.8678 34.9025 38.1746 34.9025H43.6281V29.449C43.6281 29.1392 43.7328 28.8804 43.9422 28.6724C44.1517 28.4644 44.4091 28.3597 44.7188 28.3583ZM6.33481 31.6304C6.09922 31.6304 5.89344 31.5424 5.71747 31.3664C5.54151 31.1905 5.45352 30.9847 5.45352 30.7491V6.33481C5.45352 6.09922 5.54151 5.89344 5.71747 5.71747C5.89344 5.54151 6.09922 5.45352 6.33481 5.45352H8.93505C9.17064 5.45352 9.37642 5.54151 9.55238 5.71747C9.72835 5.89344 9.81633 6.09922 9.81633 6.33481V30.7491C9.81633 30.9847 9.72835 31.1905 9.55238 31.3664C9.37642 31.5424 9.17064 31.6304 8.93505 31.6304H6.33481ZM13.0884 31.6304C12.7976 31.6304 12.5431 31.5213 12.325 31.3032C12.1068 31.085 11.9977 30.8305 11.9977 30.5397V6.54423C11.9977 6.25337 12.1068 5.99887 12.325 5.78073C12.5431 5.56259 12.7976 5.45352 13.0884 5.45352C13.3793 5.45352 13.6338 5.56259 13.8519 5.78073C14.0701 5.99887 14.1791 6.25337 14.1791 6.54423V30.5397C14.1791 30.8305 14.0701 31.085 13.8519 31.3032C13.6338 31.5213 13.3793 31.6304 13.0884 31.6304ZM19.4232 31.6304C19.1877 31.6304 18.9819 31.5424 18.8059 31.3664C18.6299 31.1905 18.542 30.9847 18.542 30.7491V6.33481C18.542 6.09922 18.6299 5.89344 18.8059 5.71747C18.9819 5.54151 19.1877 5.45352 19.4232 5.45352H22.0235C22.2591 5.45352 22.4648 5.54151 22.6408 5.71747C22.8168 5.89344 22.9048 6.09922 22.9048 6.33481V30.7491C22.9048 30.9847 22.8168 31.1905 22.6408 31.3664C22.4648 31.5424 22.2591 31.6304 22.0235 31.6304H19.4232ZM25.9675 31.6304C25.7319 31.6304 25.5261 31.5424 25.3501 31.3664C25.1742 31.1905 25.0862 30.9847 25.0862 30.7491V6.33481C25.0862 6.09922 25.1742 5.89344 25.3501 5.71747C25.5261 5.54151 25.7319 5.45352 25.9675 5.45352H30.7491C30.9847 5.45352 31.1905 5.54151 31.3664 5.71747C31.5424 5.89344 31.6304 6.09922 31.6304 6.33481V30.7491C31.6304 30.9847 31.5424 31.1905 31.3664 31.3664C31.1905 31.5424 30.9847 31.6304 30.7491 31.6304H25.9675ZM34.9025 31.6304C34.6116 31.6304 34.3571 31.5213 34.139 31.3032C33.9209 31.085 33.8118 30.8305 33.8118 30.5397V6.54423C33.8118 6.25337 33.9209 5.99887 34.139 5.78073C34.3571 5.56259 34.6116 5.45352 34.9025 5.45352C35.1934 5.45352 35.4478 5.56259 35.666 5.78073C35.8841 5.99887 35.9932 6.25337 35.9932 6.54423V30.5397C35.9932 30.8305 35.8841 31.085 35.666 31.3032C35.4478 31.5213 35.1934 31.6304 34.9025 31.6304ZM39.2653 31.6304C38.9745 31.6304 38.72 31.5213 38.5018 31.3032C38.2837 31.085 38.1746 30.8305 38.1746 30.5397V6.54423C38.1746 6.25337 38.2837 5.99887 38.5018 5.78073C38.72 5.56259 38.9745 5.45352 39.2653 5.45352C39.5562 5.45352 39.8107 5.56259 40.0288 5.78073C40.2469 5.99887 40.356 6.25337 40.356 6.54423V30.5397C40.356 30.8305 40.2469 31.085 40.0288 31.3032C39.8107 31.5213 39.5562 31.6304 39.2653 31.6304ZM8.72563 1.09071C8.72563 1.40193 8.62092 1.66151 8.41151 1.86947C8.20209 2.07743 7.94323 2.18141 7.63493 2.18141H2.18141V7.63493C2.18141 7.94469 2.07671 8.20355 1.86729 8.41151C1.65788 8.61947 1.39829 8.72418 1.08853 8.72563C0.778771 8.72709 0.519911 8.62238 0.31195 8.41151C0.10399 8.20064 9.32225e-06 7.94178 9.32225e-06 7.63493V1.76259C9.32225e-06 1.26377 0.168705 0.844941 0.506095 0.506096C0.843486 0.167251 1.26232 -0.00144495 1.76259 9.32223e-06H7.63493C7.94469 9.32223e-06 8.20355 0.104717 8.41151 0.314132C8.61947 0.523547 8.72418 0.780952 8.72563 1.09071ZM37.0839 1.08853C37.0839 0.778771 37.1886 0.519911 37.398 0.31195C37.6074 0.103989 37.8663 9.32223e-06 38.1746 9.32223e-06H44.0469C44.5472 9.32223e-06 44.966 0.168705 45.3034 0.506096C45.6408 0.843486 45.8095 1.26232 45.8095 1.76259V7.63493C45.8095 7.94469 45.7048 8.20355 45.4954 8.41151C45.286 8.61947 45.0264 8.72418 44.7166 8.72563C44.4069 8.72709 44.148 8.62238 43.9401 8.41151C43.7321 8.20064 43.6281 7.94178 43.6281 7.63493V2.18141H38.1746C37.8648 2.18141 37.606 2.07671 37.398 1.86729C37.1901 1.65788 37.0854 1.39829 37.0839 1.08853Z" fill="#048C09"/>
</svg>
