<svg width="47" height="38" viewBox="0 0 47 38" fill="none" xmlns="http://www.w3.org/2000/svg">
<path d="M9.6563 35.9932C9.6563 36.3044 9.55159 36.564 9.34217 36.772C9.13276 36.9799 8.8739 37.0839 8.56559 37.0839H2.69325C2.19443 37.0839 1.7756 36.9152 1.43676 36.5778C1.09791 36.2404 0.929219 35.8216 0.930673 35.3213V29.449C0.930673 29.1392 1.03538 28.8804 1.2448 28.6724C1.45421 28.4644 1.7138 28.3597 2.02356 28.3583C2.33332 28.3568 2.59218 28.4615 2.80014 28.6724C3.0081 28.8833 3.11208 29.1421 3.11208 29.449V34.9025H8.56559C8.87535 34.9025 9.13421 35.0072 9.34217 35.2166C9.55013 35.426 9.65484 35.6834 9.6563 35.9932ZM45.6495 28.3583C45.9607 28.3583 46.2203 28.463 46.4282 28.6724C46.6362 28.8818 46.7402 29.1407 46.7402 29.449V35.3213C46.7402 35.8216 46.5715 36.2404 46.2341 36.5778C45.8967 36.9152 45.4779 37.0839 44.9776 37.0839H39.1053C38.7955 37.0839 38.5366 36.9792 38.3287 36.7698C38.1207 36.5604 38.016 36.3008 38.0146 35.991C38.0131 35.6813 38.1178 35.4224 38.3287 35.2144C38.5396 35.0065 38.7984 34.9025 39.1053 34.9025H44.5588V29.449C44.5588 29.1392 44.6635 28.8804 44.8729 28.6724C45.0823 28.4644 45.3397 28.3597 45.6495 28.3583ZM7.26547 31.6304C7.02988 31.6304 6.8241 31.5424 6.64814 31.3664C6.47217 31.1905 6.38419 30.9847 6.38419 30.7491V6.33481C6.38419 6.09922 6.47217 5.89344 6.64814 5.71747C6.8241 5.54151 7.02988 5.45352 7.26547 5.45352H9.86571C10.1013 5.45352 10.3071 5.54151 10.483 5.71747C10.659 5.89344 10.747 6.09922 10.747 6.33481V30.7491C10.747 30.9847 10.659 31.1905 10.483 31.3664C10.3071 31.5424 10.1013 31.6304 9.86571 31.6304H7.26547ZM14.0191 31.6304C13.7283 31.6304 13.4738 31.5213 13.2556 31.3032C13.0375 31.085 12.9284 30.8305 12.9284 30.5397V6.54423C12.9284 6.25337 13.0375 5.99887 13.2556 5.78073C13.4738 5.56259 13.7283 5.45352 14.0191 5.45352C14.31 5.45352 14.5645 5.56259 14.7826 5.78073C15.0007 5.99887 15.1098 6.25337 15.1098 6.54423V30.5397C15.1098 30.8305 15.0007 31.085 14.7826 31.3032C14.5645 31.5213 14.31 31.6304 14.0191 31.6304ZM20.3539 31.6304C20.1183 31.6304 19.9125 31.5424 19.7366 31.3664C19.5606 31.1905 19.4726 30.9847 19.4726 30.7491V6.33481C19.4726 6.09922 19.5606 5.89344 19.7366 5.71747C19.9125 5.54151 20.1183 5.45352 20.3539 5.45352H22.9541C23.1897 5.45352 23.3955 5.54151 23.5715 5.71747C23.7474 5.89344 23.8354 6.09922 23.8354 6.33481V30.7491C23.8354 30.9847 23.7474 31.1905 23.5715 31.3664C23.3955 31.5424 23.1897 31.6304 22.9541 31.6304H20.3539ZM26.8981 31.6304C26.6625 31.6304 26.4568 31.5424 26.2808 31.3664C26.1048 31.1905 26.0168 30.9847 26.0168 30.7491V6.33481C26.0168 6.09922 26.1048 5.89344 26.2808 5.71747C26.4568 5.54151 26.6625 5.45352 26.8981 5.45352H31.6798C31.9154 5.45352 32.1211 5.54151 32.2971 5.71747C32.4731 5.89344 32.5611 6.09922 32.5611 6.33481V30.7491C32.5611 30.9847 32.4731 31.1905 32.2971 31.3664C32.1211 31.5424 31.9154 31.6304 31.6798 31.6304H26.8981ZM35.8332 31.6304C35.5423 31.6304 35.2878 31.5213 35.0697 31.3032C34.8515 31.085 34.7425 30.8305 34.7425 30.5397V6.54423C34.7425 6.25337 34.8515 5.99887 35.0697 5.78073C35.2878 5.56259 35.5423 5.45352 35.8332 5.45352C36.124 5.45352 36.3785 5.56259 36.5967 5.78073C36.8148 5.99887 36.9239 6.25337 36.9239 6.54423V30.5397C36.9239 30.8305 36.8148 31.085 36.5967 31.3032C36.3785 31.5213 36.124 31.6304 35.8332 31.6304ZM40.196 31.6304C39.9051 31.6304 39.6506 31.5213 39.4325 31.3032C39.2143 31.085 39.1053 30.8305 39.1053 30.5397V6.54423C39.1053 6.25337 39.2143 5.99887 39.4325 5.78073C39.6506 5.56259 39.9051 5.45352 40.196 5.45352C40.4868 5.45352 40.7413 5.56259 40.9595 5.78073C41.1776 5.99887 41.2867 6.25337 41.2867 6.54423V30.5397C41.2867 30.8305 41.1776 31.085 40.9595 31.3032C40.7413 31.5213 40.4868 31.6304 40.196 31.6304ZM9.6563 1.09071C9.6563 1.40193 9.55159 1.66151 9.34217 1.86947C9.13276 2.07743 8.8739 2.18141 8.56559 2.18141H3.11208V7.63493C3.11208 7.94469 3.00737 8.20355 2.79796 8.41151C2.58854 8.61947 2.32895 8.72418 2.01919 8.72563C1.70944 8.72709 1.45058 8.62238 1.24261 8.41151C1.03465 8.20064 0.930673 7.94178 0.930673 7.63493V1.76259C0.930673 1.26377 1.09937 0.844941 1.43676 0.506096C1.77415 0.167251 2.19298 -0.00144495 2.69325 9.32223e-06H8.56559C8.87535 9.32223e-06 9.13421 0.104717 9.34217 0.314132C9.55013 0.523547 9.65484 0.780952 9.6563 1.09071ZM38.0146 1.08853C38.0146 0.778771 38.1193 0.519911 38.3287 0.31195C38.5381 0.103989 38.797 9.32223e-06 39.1053 9.32223e-06H44.9776C45.4779 9.32223e-06 45.8967 0.168705 46.2341 0.506096C46.5715 0.843486 46.7402 1.26232 46.7402 1.76259V7.63493C46.7402 7.94469 46.6355 8.20355 46.4261 8.41151C46.2167 8.61947 45.9571 8.72418 45.6473 8.72563C45.3375 8.72709 45.0787 8.62238 44.8707 8.41151C44.6628 8.20064 44.5588 7.94178 44.5588 7.63493V2.18141H39.1053C38.7955 2.18141 38.5366 2.07671 38.3287 1.86729C38.1207 1.65788 38.016 1.39829 38.0146 1.08853Z" fill="#B30A28"/>
</svg>
