<svg width="34" height="35" viewBox="0 0 34 35" fill="none" xmlns="http://www.w3.org/2000/svg">
<path fill-rule="evenodd" clip-rule="evenodd" d="M9.51927 8.05907C9.51927 6.09041 10.3013 4.20238 11.6934 2.81033C13.0854 1.41828 14.9735 0.63623 16.9421 0.63623C18.9108 0.63623 20.7988 1.41828 22.1909 2.81033C23.5829 4.20238 24.365 6.09041 24.365 8.05907C24.365 10.0277 23.5829 11.9158 22.1909 13.3078C20.7988 14.6999 18.9108 15.4819 16.9421 15.4819C14.9735 15.4819 13.0854 14.6999 11.6934 13.3078C10.3013 11.9158 9.51927 10.0277 9.51927 8.05907ZM9.51927 19.1933C7.05845 19.1933 4.69841 20.1709 2.95835 21.911C1.21828 23.651 0.240723 26.0111 0.240723 28.4719C0.240723 29.9484 0.827258 31.3644 1.8713 32.4084C2.91534 33.4525 4.33136 34.039 5.80785 34.039H28.0764C29.5529 34.039 30.9689 33.4525 32.0129 32.4084C33.057 31.3644 33.6435 29.9484 33.6435 28.4719C33.6435 26.0111 32.6659 23.651 30.9259 21.911C29.1858 20.1709 26.8258 19.1933 24.365 19.1933H9.51927Z" fill="black"/>
</svg>
