<svg width="31" height="31" viewBox="0 0 31 31" fill="none" xmlns="http://www.w3.org/2000/svg">
<path d="M22.1555 19.4969H20.7553L20.259 19.0183C22.056 16.9339 23.0437 14.2729 23.0417 11.5209C23.0417 9.24226 22.3661 7.01482 21.1001 5.12022C19.8342 3.22562 18.0349 1.74897 15.9297 0.876979C13.8246 0.00499181 11.5081 -0.22316 9.27326 0.221375C7.03843 0.665911 4.98561 1.76317 3.37439 3.37439C1.76317 4.98561 0.665911 7.03843 0.221375 9.27326C-0.22316 11.5081 0.00499181 13.8246 0.876979 15.9297C1.74897 18.0349 3.22562 19.8342 5.12022 21.1001C7.01482 22.3661 9.24226 23.0417 11.5209 23.0417C14.3745 23.0417 16.9977 21.996 19.0183 20.259L19.4969 20.7553V22.1555L28.3591 31L31 28.3591L22.1555 19.4969ZM11.5209 19.4969C7.10749 19.4969 3.54489 15.9342 3.54489 11.5209C3.54489 7.10749 7.10749 3.54489 11.5209 3.54489C15.9342 3.54489 19.4969 7.10749 19.4969 11.5209C19.4969 15.9342 15.9342 19.4969 11.5209 19.4969Z" fill="white"/>
</svg>
